<mxfile host="app.diagrams.net" modified="2022-04-28T13:13:37.029Z" agent="5.0 (Windows NT 6.3; Win64; x64) AppleWebKit/537.36 (KHTML, like Gecko) Chrome/100.0.4896.127 Safari/537.36" etag="Y-iDX1pXkF2rf0e4Ufel" version="17.4.6" type="github">
  <diagram id="C5RBs43oDa-KdzZeNtuy" name="Page-1">
    <mxGraphModel dx="868" dy="1657" grid="1" gridSize="10" guides="1" tooltips="1" connect="1" arrows="1" fold="1" page="1" pageScale="1" pageWidth="827" pageHeight="1169" background="#283618" math="0" shadow="0">
      <root>
        <mxCell id="WIyWlLk6GJQsqaUBKTNV-0" />
        <mxCell id="WIyWlLk6GJQsqaUBKTNV-1" parent="WIyWlLk6GJQsqaUBKTNV-0" />
        <mxCell id="7PwOX8QqQBkfpNBtA3QV-0" value="&lt;h1&gt;Love calculator flowchart&lt;/h1&gt;" style="text;html=1;strokeColor=none;fillColor=none;spacing=5;spacingTop=-20;whiteSpace=wrap;overflow=hidden;rounded=0;sketch=0;fontColor=#FEFAE0;" parent="WIyWlLk6GJQsqaUBKTNV-1" vertex="1">
          <mxGeometry x="10" y="-81" width="190" height="70" as="geometry" />
        </mxCell>
        <mxCell id="7PwOX8QqQBkfpNBtA3QV-3" value="" style="edgeStyle=orthogonalEdgeStyle;curved=0;rounded=1;sketch=0;orthogonalLoop=1;jettySize=auto;html=1;fontColor=#FEFAE0;strokeColor=#DDA15E;fillColor=#BC6C25;" parent="WIyWlLk6GJQsqaUBKTNV-1" source="7PwOX8QqQBkfpNBtA3QV-1" target="7PwOX8QqQBkfpNBtA3QV-2" edge="1">
          <mxGeometry relative="1" as="geometry" />
        </mxCell>
        <mxCell id="7PwOX8QqQBkfpNBtA3QV-1" value="Start" style="ellipse;whiteSpace=wrap;html=1;rounded=0;sketch=0;fontColor=#FEFAE0;strokeColor=#DDA15E;fillColor=#BC6C25;" parent="WIyWlLk6GJQsqaUBKTNV-1" vertex="1">
          <mxGeometry x="320" y="-86" width="120" height="80" as="geometry" />
        </mxCell>
        <mxCell id="7PwOX8QqQBkfpNBtA3QV-5" value="" style="edgeStyle=orthogonalEdgeStyle;curved=0;rounded=1;sketch=0;orthogonalLoop=1;jettySize=auto;html=1;fontColor=#FEFAE0;strokeColor=#DDA15E;fillColor=#BC6C25;" parent="WIyWlLk6GJQsqaUBKTNV-1" source="7PwOX8QqQBkfpNBtA3QV-2" target="7PwOX8QqQBkfpNBtA3QV-4" edge="1">
          <mxGeometry relative="1" as="geometry" />
        </mxCell>
        <mxCell id="7PwOX8QqQBkfpNBtA3QV-2" value="Set name 1&lt;br&gt;Set name 2" style="shape=parallelogram;perimeter=parallelogramPerimeter;whiteSpace=wrap;html=1;fixedSize=1;fillColor=#BC6C25;strokeColor=#DDA15E;fontColor=#FEFAE0;rounded=0;sketch=0;size=20;" parent="WIyWlLk6GJQsqaUBKTNV-1" vertex="1">
          <mxGeometry x="320" y="19" width="120" height="60" as="geometry" />
        </mxCell>
        <mxCell id="7PwOX8QqQBkfpNBtA3QV-7" value="" style="edgeStyle=orthogonalEdgeStyle;curved=0;rounded=1;sketch=0;orthogonalLoop=1;jettySize=auto;html=1;fontColor=#FEFAE0;strokeColor=#DDA15E;fillColor=#BC6C25;" parent="WIyWlLk6GJQsqaUBKTNV-1" source="7PwOX8QqQBkfpNBtA3QV-4" target="7PwOX8QqQBkfpNBtA3QV-6" edge="1">
          <mxGeometry relative="1" as="geometry" />
        </mxCell>
        <mxCell id="7PwOX8QqQBkfpNBtA3QV-4" value="Set couple_name= name1+name2&lt;br&gt;in lower case" style="whiteSpace=wrap;html=1;fillColor=#BC6C25;strokeColor=#DDA15E;fontColor=#FEFAE0;rounded=0;sketch=0;" parent="WIyWlLk6GJQsqaUBKTNV-1" vertex="1">
          <mxGeometry x="320" y="99" width="120" height="50" as="geometry" />
        </mxCell>
        <mxCell id="7PwOX8QqQBkfpNBtA3QV-6" value="x=count &#39;true&#39; occurences in couple_name" style="whiteSpace=wrap;html=1;fillColor=#BC6C25;strokeColor=#DDA15E;fontColor=#FEFAE0;rounded=0;sketch=0;" parent="WIyWlLk6GJQsqaUBKTNV-1" vertex="1">
          <mxGeometry x="320" y="169" width="120" height="60" as="geometry" />
        </mxCell>
        <mxCell id="7PwOX8QqQBkfpNBtA3QV-13" value="" style="edgeStyle=orthogonalEdgeStyle;curved=0;rounded=1;sketch=0;orthogonalLoop=1;jettySize=auto;html=1;fontColor=#FEFAE0;strokeColor=#DDA15E;fillColor=#BC6C25;" parent="WIyWlLk6GJQsqaUBKTNV-1" source="7PwOX8QqQBkfpNBtA3QV-10" target="7PwOX8QqQBkfpNBtA3QV-12" edge="1">
          <mxGeometry relative="1" as="geometry" />
        </mxCell>
        <mxCell id="7PwOX8QqQBkfpNBtA3QV-10" value="y=count &#39;love&#39; occurences in couple_name" style="whiteSpace=wrap;html=1;fillColor=#BC6C25;strokeColor=#DDA15E;fontColor=#FEFAE0;rounded=0;sketch=0;" parent="WIyWlLk6GJQsqaUBKTNV-1" vertex="1">
          <mxGeometry x="320" y="249" width="120" height="60" as="geometry" />
        </mxCell>
        <mxCell id="7PwOX8QqQBkfpNBtA3QV-11" value="" style="endArrow=classic;html=1;rounded=1;sketch=0;fontColor=#FEFAE0;strokeColor=#DDA15E;fillColor=#BC6C25;curved=0;entryX=0.5;entryY=0;entryDx=0;entryDy=0;" parent="WIyWlLk6GJQsqaUBKTNV-1" target="7PwOX8QqQBkfpNBtA3QV-10" edge="1">
          <mxGeometry width="50" height="50" relative="1" as="geometry">
            <mxPoint x="380" y="239" as="sourcePoint" />
            <mxPoint x="440" y="99" as="targetPoint" />
          </mxGeometry>
        </mxCell>
        <mxCell id="7PwOX8QqQBkfpNBtA3QV-15" value="" style="edgeStyle=orthogonalEdgeStyle;curved=0;rounded=1;sketch=0;orthogonalLoop=1;jettySize=auto;html=1;fontColor=#FEFAE0;strokeColor=#DDA15E;fillColor=#BC6C25;" parent="WIyWlLk6GJQsqaUBKTNV-1" source="7PwOX8QqQBkfpNBtA3QV-12" target="7PwOX8QqQBkfpNBtA3QV-14" edge="1">
          <mxGeometry relative="1" as="geometry" />
        </mxCell>
        <mxCell id="7PwOX8QqQBkfpNBtA3QV-12" value="Set &#39;love_ratio&#39;= &#39;x&#39;+&#39;y&#39;" style="whiteSpace=wrap;html=1;fillColor=#BC6C25;strokeColor=#DDA15E;fontColor=#FEFAE0;rounded=0;sketch=0;" parent="WIyWlLk6GJQsqaUBKTNV-1" vertex="1">
          <mxGeometry x="320" y="329" width="120" height="60" as="geometry" />
        </mxCell>
        <mxCell id="7PwOX8QqQBkfpNBtA3QV-17" value="&amp;lt;10 or &amp;gt;90" style="edgeStyle=orthogonalEdgeStyle;curved=0;rounded=1;sketch=0;orthogonalLoop=1;jettySize=auto;html=1;fontColor=#FEFAE0;strokeColor=#DDA15E;fillColor=#BC6C25;labelBackgroundColor=none;entryX=1;entryY=0.5;entryDx=0;entryDy=0;" parent="WIyWlLk6GJQsqaUBKTNV-1" source="7PwOX8QqQBkfpNBtA3QV-14" target="7PwOX8QqQBkfpNBtA3QV-22" edge="1">
          <mxGeometry x="-0.0435" y="-15" relative="1" as="geometry">
            <mxPoint x="210" y="475" as="targetPoint" />
            <mxPoint as="offset" />
          </mxGeometry>
        </mxCell>
        <mxCell id="7PwOX8QqQBkfpNBtA3QV-19" value="else" style="edgeStyle=orthogonalEdgeStyle;curved=0;rounded=1;sketch=0;orthogonalLoop=1;jettySize=auto;html=1;fontColor=#FEFAE0;strokeColor=#DDA15E;fillColor=#BC6C25;labelBackgroundColor=none;entryX=0;entryY=0.5;entryDx=0;entryDy=0;" parent="WIyWlLk6GJQsqaUBKTNV-1" source="7PwOX8QqQBkfpNBtA3QV-14" target="SYV5nU7RGVxBuLuHoBT7-1" edge="1">
          <mxGeometry x="-0.0667" y="15" relative="1" as="geometry">
            <mxPoint as="offset" />
            <mxPoint x="510" y="475" as="targetPoint" />
          </mxGeometry>
        </mxCell>
        <mxCell id="7PwOX8QqQBkfpNBtA3QV-21" value="&amp;gt;40 and &amp;lt;50" style="edgeStyle=orthogonalEdgeStyle;curved=0;rounded=1;sketch=0;orthogonalLoop=1;jettySize=auto;html=1;fontColor=#FEFAE0;strokeColor=#DDA15E;fillColor=#BC6C25;labelBackgroundColor=none;entryX=0.5;entryY=0;entryDx=0;entryDy=0;" parent="WIyWlLk6GJQsqaUBKTNV-1" source="7PwOX8QqQBkfpNBtA3QV-14" target="SYV5nU7RGVxBuLuHoBT7-0" edge="1">
          <mxGeometry relative="1" as="geometry">
            <mxPoint x="380" y="635" as="targetPoint" />
          </mxGeometry>
        </mxCell>
        <mxCell id="7PwOX8QqQBkfpNBtA3QV-14" value="Evaluate&lt;br&gt;int(love_ratio)" style="rhombus;whiteSpace=wrap;html=1;fillColor=#BC6C25;strokeColor=#DDA15E;fontColor=#FEFAE0;rounded=0;sketch=0;" parent="WIyWlLk6GJQsqaUBKTNV-1" vertex="1">
          <mxGeometry x="325" y="420" width="110" height="110" as="geometry" />
        </mxCell>
        <mxCell id="7PwOX8QqQBkfpNBtA3QV-27" value="" style="edgeStyle=orthogonalEdgeStyle;curved=0;rounded=1;sketch=0;orthogonalLoop=1;jettySize=auto;html=1;labelBackgroundColor=none;fontColor=#FEFAE0;strokeColor=#DDA15E;fillColor=#BC6C25;entryX=1;entryY=0;entryDx=0;entryDy=0;exitX=0.567;exitY=0.983;exitDx=0;exitDy=0;exitPerimeter=0;" parent="WIyWlLk6GJQsqaUBKTNV-1" source="SYV5nU7RGVxBuLuHoBT7-1" target="7PwOX8QqQBkfpNBtA3QV-23" edge="1">
          <mxGeometry relative="1" as="geometry">
            <mxPoint x="570" y="820" as="targetPoint" />
            <Array as="points">
              <mxPoint x="590" y="504" />
              <mxPoint x="590" y="820" />
              <mxPoint x="422" y="820" />
            </Array>
            <mxPoint x="590" y="505" as="sourcePoint" />
          </mxGeometry>
        </mxCell>
        <mxCell id="7PwOX8QqQBkfpNBtA3QV-25" value="" style="edgeStyle=orthogonalEdgeStyle;curved=0;rounded=1;sketch=0;orthogonalLoop=1;jettySize=auto;html=1;labelBackgroundColor=none;fontColor=#FEFAE0;strokeColor=#DDA15E;fillColor=#BC6C25;entryX=0.5;entryY=0;entryDx=0;entryDy=0;exitX=0.5;exitY=1;exitDx=0;exitDy=0;" parent="WIyWlLk6GJQsqaUBKTNV-1" source="SYV5nU7RGVxBuLuHoBT7-0" target="7PwOX8QqQBkfpNBtA3QV-23" edge="1">
          <mxGeometry relative="1" as="geometry">
            <mxPoint x="380" y="820" as="targetPoint" />
            <mxPoint x="380" y="695" as="sourcePoint" />
          </mxGeometry>
        </mxCell>
        <mxCell id="7PwOX8QqQBkfpNBtA3QV-29" value="" style="edgeStyle=orthogonalEdgeStyle;curved=0;rounded=1;sketch=0;orthogonalLoop=1;jettySize=auto;html=1;labelBackgroundColor=none;fontColor=#FEFAE0;strokeColor=#DDA15E;fillColor=#BC6C25;entryX=0;entryY=0;entryDx=0;entryDy=0;" parent="WIyWlLk6GJQsqaUBKTNV-1" source="7PwOX8QqQBkfpNBtA3QV-22" target="7PwOX8QqQBkfpNBtA3QV-23" edge="1">
          <mxGeometry relative="1" as="geometry">
            <mxPoint x="150" y="830" as="targetPoint" />
            <Array as="points">
              <mxPoint x="130" y="830" />
              <mxPoint x="338" y="830" />
            </Array>
          </mxGeometry>
        </mxCell>
        <mxCell id="7PwOX8QqQBkfpNBtA3QV-22" value="Message1" style="shape=parallelogram;perimeter=parallelogramPerimeter;whiteSpace=wrap;html=1;fixedSize=1;rounded=0;sketch=0;fontColor=#FEFAE0;strokeColor=#DDA15E;fillColor=#BC6C25;" parent="WIyWlLk6GJQsqaUBKTNV-1" vertex="1">
          <mxGeometry x="90" y="445" width="120" height="60" as="geometry" />
        </mxCell>
        <mxCell id="7PwOX8QqQBkfpNBtA3QV-23" value="End" style="ellipse;whiteSpace=wrap;html=1;rounded=0;sketch=0;fontColor=#FEFAE0;strokeColor=#DDA15E;fillColor=#BC6C25;" parent="WIyWlLk6GJQsqaUBKTNV-1" vertex="1">
          <mxGeometry x="320" y="820" width="120" height="80" as="geometry" />
        </mxCell>
        <mxCell id="SYV5nU7RGVxBuLuHoBT7-0" value="Message 2" style="shape=parallelogram;perimeter=parallelogramPerimeter;whiteSpace=wrap;html=1;fixedSize=1;rounded=0;sketch=0;fontColor=#FEFAE0;strokeColor=#DDA15E;fillColor=#BC6C25;" vertex="1" parent="WIyWlLk6GJQsqaUBKTNV-1">
          <mxGeometry x="320" y="630" width="120" height="60" as="geometry" />
        </mxCell>
        <mxCell id="SYV5nU7RGVxBuLuHoBT7-1" value="Message 3" style="shape=parallelogram;perimeter=parallelogramPerimeter;whiteSpace=wrap;html=1;fixedSize=1;rounded=0;sketch=0;fontColor=#FEFAE0;strokeColor=#DDA15E;fillColor=#BC6C25;" vertex="1" parent="WIyWlLk6GJQsqaUBKTNV-1">
          <mxGeometry x="520" y="445" width="120" height="60" as="geometry" />
        </mxCell>
      </root>
    </mxGraphModel>
  </diagram>
</mxfile>
